<?xml version="1.0" encoding="iso-8859-1"?>
<!-- Generator: Adobe Illustrator 19.0.0, SVG Export Plug-In . SVG Version: 6.00 Build 0)  -->
<svg version="1.1" id="Layer_1" xmlns="http://www.w3.org/2000/svg" xmlns:xlink="http://www.w3.org/1999/xlink" x="0px" y="0px"
	 viewBox="0 0 512 512" style="enable-background:new 0 0 512 512;" xml:space="preserve">
<rect x="68.137" y="279.653" transform="matrix(0.9639 -0.2663 0.2663 0.9639 -77.7541 43.4853)" style="fill:#FFD15C;" width="106.668" height="57.601"/>
<rect x="163.775" y="266.533" transform="matrix(0.9639 -0.2663 0.2663 0.9639 -72.5787 55.4132)" style="fill:#F8B64C;" width="8.533" height="57.601"/>
<g>
	<path style="fill:#CDD6E0;" d="M433.067,188.8c9.6-34.133-29.867-50.133-29.867-50.133C359.467,121.6,365.867,99.2,365.867,99.2
		s-14.933,14.933,10.667,38.4c5.333,4.267,11.733,8.533,18.133,11.733C407.467,155.733,435.2,171.733,433.067,188.8z"/>
	<path style="fill:#CDD6E0;" d="M404.267,190.933c6.4-23.467-20.267-33.067-20.267-33.067c-29.867-11.733-25.6-26.667-25.6-26.667
		s-9.6,10.667,7.467,25.6c3.2,3.2,7.467,5.333,11.733,7.467C387.2,168.533,405.333,179.2,404.267,190.933z"/>
</g>
<path style="fill:#F2F2F2;" d="M413.867,197.333l-248.533,69.333l14.933,55.467L428.8,253.867
	C430.933,232.533,411.733,218.667,413.867,197.333z"/>
<g>
	<path style="fill:#FF7058;" d="M419.2,196.267l-5.333,1.067c-2.133,20.267,17.067,35.2,14.933,55.467l5.333-1.067
		C437.333,231.467,417.067,216.533,419.2,196.267z"/>
	<path style="fill:#FF7058;" d="M0,256c0,141.867,114.133,256,256,256s256-114.133,256-256S397.867,0,256,0S0,114.133,0,256z
		 M469.333,256c0,51.2-18.133,98.133-48,134.4L121.6,90.667c36.267-29.867,83.2-48,134.4-48
		C373.333,42.667,469.333,138.667,469.333,256z M42.667,256c0-51.2,18.133-98.133,48-134.4L390.4,421.333
		c-36.267,29.867-83.2,48-134.4,48C138.667,469.333,42.667,373.333,42.667,256z"/>
</g>
<g>
</g>
<g>
</g>
<g>
</g>
<g>
</g>
<g>
</g>
<g>
</g>
<g>
</g>
<g>
</g>
<g>
</g>
<g>
</g>
<g>
</g>
<g>
</g>
<g>
</g>
<g>
</g>
<g>
</g>
</svg>
