<?xml version="1.0" encoding="iso-8859-1"?>
<!-- Generator: Adobe Illustrator 19.0.0, SVG Export Plug-In . SVG Version: 6.00 Build 0)  -->
<svg version="1.1" id="Layer_1" xmlns="http://www.w3.org/2000/svg" xmlns:xlink="http://www.w3.org/1999/xlink" x="0px" y="0px"
	 viewBox="0 0 496.159 496.159" style="enable-background:new 0 0 496.159 496.159;" xml:space="preserve">
<path style="fill:#48A1AF;" d="M248.083,0.003C111.071,0.003,0,111.063,0,248.085c0,137.001,111.07,248.07,248.083,248.07
	c137.006,0,248.076-111.069,248.076-248.07C496.159,111.062,385.089,0.003,248.083,0.003z"/>
<path style="fill:#BA8436;" d="M246.411,183.291l16.384,48.171l7.991,0.382l18.813-44.485
	C271.4,177.145,246.411,183.291,246.411,183.291z"/>
<polygon style="fill:#A3712F;" points="246.411,183.291 262.794,231.462 270.786,231.844 279.659,210.864 "/>
<path style="fill:#EFEEE4;" d="M248.076,178.163L60.153,246.491c2.275,9.98,5.187,19.932,8.771,29.803
	c3.581,9.867,7.729,19.364,12.385,28.477l187.923-68.329L248.076,178.163z"/>
<path style="fill:#E2E2E0;" d="M258.417,206.652L85.905,287.744c0,0-9.252,7.914-4.597,17.026l187.923-68.329L258.417,206.652z"/>
<rect x="169.16" y="208.043" transform="matrix(-0.94 0.3412 -0.3412 -0.94 414.3694 405.2097)" style="fill:#9E9D86;" width="4.782" height="62.001"/>
<path style="fill:#E79E2F;" d="M131.752,220.5L23.815,259.716c2.275,9.98,5.187,19.932,8.771,29.803
	c3.581,9.867,7.729,19.364,12.385,28.477l107.938-39.217L131.752,220.5z"/>
<g>
	<circle style="fill:#E5AA5C;" cx="124.18" cy="230.789" r="3.495"/>
	<circle style="fill:#E5AA5C;" cx="129.73" cy="246.059" r="3.495"/>
	<circle style="fill:#E5AA5C;" cx="135.27" cy="261.339" r="3.495"/>
	<circle style="fill:#E5AA5C;" cx="140.82" cy="276.609" r="3.495"/>
	<circle style="fill:#E5AA5C;" cx="95.88" cy="241.059" r="3.495"/>
	<circle style="fill:#E5AA5C;" cx="101.43" cy="256.329" r="3.495"/>
	<circle style="fill:#E5AA5C;" cx="106.97" cy="271.609" r="3.495"/>
	<circle style="fill:#E5AA5C;" cx="112.52" cy="286.879" r="3.495"/>
	<circle style="fill:#E5AA5C;" cx="67.58" cy="251.329" r="3.495"/>
	<circle style="fill:#E5AA5C;" cx="73.13" cy="266.609" r="3.495"/>
	<circle style="fill:#E5AA5C;" cx="78.67" cy="281.879" r="3.495"/>
	<circle style="fill:#E5AA5C;" cx="84.22" cy="297.159" r="3.495"/>
	<circle style="fill:#E5AA5C;" cx="112.92" cy="243.309" r="3.495"/>
	<circle style="fill:#E5AA5C;" cx="118.47" cy="258.579" r="3.495"/>
	<circle style="fill:#E5AA5C;" cx="124.01" cy="273.859" r="3.495"/>
	<circle style="fill:#E5AA5C;" cx="84.63" cy="253.579" r="3.495"/>
	<circle style="fill:#E5AA5C;" cx="90.17" cy="268.859" r="3.495"/>
	<circle style="fill:#E5AA5C;" cx="95.72" cy="284.129" r="3.495"/>
	<circle style="fill:#E5AA5C;" cx="39.028" cy="262.309" r="3.495"/>
	<circle style="fill:#E5AA5C;" cx="44.57" cy="277.589" r="3.494"/>
	<circle style="fill:#E5AA5C;" cx="50.12" cy="292.859" r="3.495"/>
	<circle style="fill:#E5AA5C;" cx="55.66" cy="308.139" r="3.495"/>
	<circle style="fill:#E5AA5C;" cx="56.07" cy="264.559" r="3.494"/>
	<circle style="fill:#E5AA5C;" cx="61.61" cy="279.839" r="3.495"/>
	<circle style="fill:#E5AA5C;" cx="67.16" cy="295.109" r="3.495"/>
</g>
<path style="fill:#EFEEE4;" d="M291.421,181.414c-5.447,8.667-10.426,17.762-14.871,27.275c-4.445,9.51-8.228,19.159-11.379,28.894
	l163.272,75.911l26.25-56.169L291.421,181.414z"/>
<path style="fill:#E2E2E0;" d="M276.55,208.689c-4.445,9.51-8.228,19.159-11.379,28.894l163.272,75.911l26.25-56.169L276.55,208.689
	z"/>
<polygon style="fill:#9FA09F;" points="472.345,265.575 454.694,257.325 428.444,313.494 437.778,317.857 445.572,316.531 
	446.934,308.891 454.14,304.53 456.581,290.218 452.598,280.631 467.585,272.182 "/>
<polygon style="fill:#888988;" points="472.345,265.575 442.415,283.599 437.758,293.563 437.778,317.857 445.572,316.531 
	449.844,292.037 456.581,290.218 452.598,280.631 467.585,272.182 "/>
<g>
</g>
<g>
</g>
<g>
</g>
<g>
</g>
<g>
</g>
<g>
</g>
<g>
</g>
<g>
</g>
<g>
</g>
<g>
</g>
<g>
</g>
<g>
</g>
<g>
</g>
<g>
</g>
<g>
</g>
</svg>
