<?xml version="1.0" encoding="iso-8859-1"?>
<!-- Generator: Adobe Illustrator 19.0.0, SVG Export Plug-In . SVG Version: 6.00 Build 0)  -->
<svg version="1.1" id="Layer_1" xmlns="http://www.w3.org/2000/svg" xmlns:xlink="http://www.w3.org/1999/xlink" x="0px" y="0px"
	 viewBox="0 0 512.004 512.004" style="enable-background:new 0 0 512.004 512.004;" xml:space="preserve">
<path style="fill:#FF5E8A;" d="M460.249,269.78c-6.15-2.845-19.194-17.923-30.703-31.226
	c-17.961-20.763-40.316-46.603-64.955-62.534c-43.017-27.813-88.732-8.603-120.379,13.424
	c-31.646-22.024-77.366-41.232-120.379-13.424c-24.64,15.932-46.994,41.771-64.955,62.534
	c-11.508,13.303-24.553,28.381-30.704,31.226l-13.958,6.455l7.132,13.626c0.763,1.459,19.122,36.141,55.465,71.016
	c48.618,46.657,106.506,71.318,167.4,71.318s118.782-24.662,167.4-71.318c36.343-34.875,54.702-69.556,55.465-71.016l7.132-13.626
	L460.249,269.78z M244.212,319.685c-51.936,0-94.038-35.574-94.038-35.574s42.102-35.574,94.038-35.574s94.038,35.574,94.038,35.574
	S296.148,319.685,244.212,319.685z"/>
<path style="fill:#BDDEE5;" d="M470.859,79.807c-14.147,0-25.246,15.774-25.246,15.774s-10.47-15.774-25.252-15.774
	c-14.379,0-26.12,11.859-26.889,26.218c-0.433,8.112,2.183,14.285,5.867,19.876c7.362,11.17,39.55,38.065,46.321,38.065
	c6.912,0,38.812-26.795,46.224-38.065c3.692-5.617,6.299-11.764,5.866-19.876C496.981,91.666,485.238,79.807,470.859,79.807"/>
<path d="M445.661,178.176c-3.535,0-10.116,0-31.999-18.105c-4.551-3.766-19.891-16.796-26.188-26.35
	c-3.855-5.85-8.9-15.165-8.193-28.451c1.192-22.248,19.236-39.672,41.079-39.672c10.464,0,19.089,4.585,25.393,9.6
	c6.353-4.998,14.96-9.6,25.106-9.6c21.845,0,39.888,17.424,41.079,39.668c0.71,13.259-4.33,22.583-8.182,28.442
	c-6.343,9.647-21.579,22.635-26.095,26.385C455.879,178.176,449.232,178.176,445.661,178.176z M448.662,150.204L448.662,150.204
	L448.662,150.204z M420.361,94.017c-6.626,0-12.323,5.728-12.701,12.767c-0.209,3.942,0.784,7.111,3.542,11.298
	c4.841,7.344,25.272,24.792,34.481,30.524c9.137-5.691,29.465-23.121,34.326-30.514c2.764-4.203,3.76-7.375,3.55-11.308
	c-0.378-7.041-6.075-12.767-12.701-12.767c-4.654,0-11.203,6.39-13.674,9.81c-2.701,3.837-7.135,6.096-11.79,5.996
	c-4.692-0.064-9.026-2.475-11.622-6.384C431.703,100.422,425.611,94.017,420.361,94.017z"/>
<path d="M487.66,271.662c-1.252-3.682-3.959-6.69-7.49-8.323l-13.755-6.36c-4.583-2.818-18.572-18.99-26.124-27.719
	c-18.551-21.444-41.636-48.132-67.988-65.17c-37.36-24.156-81.495-21.245-128.094,8.296c-46.605-29.539-90.737-32.448-128.095-8.296
	c-26.353,17.039-49.438,43.726-67.999,65.184c-7.541,8.715-21.532,24.888-26.113,27.705l-13.756,6.36
	c-3.53,1.633-6.238,4.641-7.49,8.324c-1.252,3.683-0.939,7.717,0.864,11.163l7.13,13.621c0.807,1.543,20.199,38.2,58.217,74.682
	c51.317,49.246,112.605,75.276,177.239,75.276s125.922-26.029,177.237-75.276c38.019-36.483,57.41-73.14,58.217-74.679l7.132-13.626
	C488.6,279.379,488.912,275.343,487.66,271.662z M454.485,283.275c-0.719,1.374-18.007,34.045-52.712,67.348
	c-45.92,44.068-100.404,67.361-157.561,67.361s-111.64-23.294-157.563-67.362c-20.736-19.898-35.25-39.565-43.73-52.473h102.128
	c12.409,9.346,51.666,35.744,99.166,35.744s86.756-26.399,99.166-35.744h26.434c7.847,0,14.21-6.362,14.21-14.21
	s-6.363-14.21-14.21-14.21h-26.895c-12.88-9.624-51.757-35.403-98.706-35.403s-85.826,25.779-98.706,35.403H50.051
	c5.242-5.437,11.548-12.601,19.575-21.879c17.366-20.075,38.979-45.06,61.923-59.897c29.458-19.048,64.634-14.623,104.546,13.154
	c4.88,3.396,11.355,3.395,16.235,0c39.906-27.776,75.081-32.203,104.545-13.154c22.944,14.835,44.557,39.82,61.937,59.914
	c18.045,20.857,27.426,31.089,35.472,34.811h0.001l0.412,0.19L454.485,283.275z M175.08,284.082
	c15.464-9.351,40.812-21.337,69.131-21.337c28.175,0,53.612,12.033,69.131,21.393c-15.464,9.351-40.812,21.336-69.131,21.336
	C216.037,305.475,190.602,293.441,175.08,284.082z"/>
<path d="M411.744,298.146c-3.737,0-7.403-1.52-10.045-4.163c-2.643-2.643-4.165-6.295-4.165-10.046c0-0.924,0.099-1.861,0.284-2.771
	s0.455-1.805,0.81-2.657c0.355-0.867,0.796-1.691,1.307-2.458c0.51-0.782,1.107-1.506,1.762-2.16
	c2.642-2.643,6.308-4.163,10.045-4.163s7.403,1.52,10.046,4.163c0.654,0.654,1.25,1.378,1.776,2.16
	c0.512,0.767,0.952,1.591,1.307,2.458c0.355,0.853,0.625,1.748,0.81,2.657s0.269,1.847,0.269,2.771
	c0,3.751-1.519,7.403-4.163,10.046S415.48,298.146,411.744,298.146z"/>
<path style="fill:#FECC85;" d="M338.25,284.111c0,0-42.102,35.574-94.038,35.574s-94.038-35.574-94.038-35.574
	s42.102-35.574,94.038-35.574S338.25,284.111,338.25,284.111z"/>
<path d="M244.212,333.894c-56.486,0-101.328-37.34-103.209-38.929c-3.196-2.7-5.039-6.67-5.039-10.853
	c0-4.183,1.843-8.154,5.039-10.853c1.881-1.59,46.723-38.93,103.209-38.93s101.328,37.34,103.209,38.93
	c3.196,2.7,5.039,6.67,5.039,10.853c0,4.183-1.843,8.154-5.039,10.853C345.54,296.554,300.698,333.894,244.212,333.894z
	 M175.08,284.082c15.521,9.358,40.957,21.391,69.131,21.391c28.145,0,53.553-12.006,69.083-21.364
	c-15.531-9.358-40.941-21.364-69.083-21.364C215.892,262.747,190.545,274.732,175.08,284.082z"/>
<g>
</g>
<g>
</g>
<g>
</g>
<g>
</g>
<g>
</g>
<g>
</g>
<g>
</g>
<g>
</g>
<g>
</g>
<g>
</g>
<g>
</g>
<g>
</g>
<g>
</g>
<g>
</g>
<g>
</g>
</svg>
