<?xml version="1.0" encoding="iso-8859-1"?>
<!-- Generator: Adobe Illustrator 19.0.0, SVG Export Plug-In . SVG Version: 6.00 Build 0)  -->
<svg version="1.1" id="Layer_1" xmlns="http://www.w3.org/2000/svg" xmlns:xlink="http://www.w3.org/1999/xlink" x="0px" y="0px"
	 viewBox="0 0 512 512" style="enable-background:new 0 0 512 512;" xml:space="preserve">
<g>
	<path style="fill:#E7812E;" d="M473.04,139.876c-6.759,0-13.121-4.135-15.635-10.837c-3.238-8.634,1.136-18.257,9.77-21.495
		c3.901-1.463,6.521-5.245,6.521-9.411s-2.62-7.948-6.521-9.411c-16.86-6.323-28.188-22.669-28.188-40.675
		s11.328-34.352,28.188-40.675c8.63-3.236,18.257,1.136,21.495,9.77s-1.136,18.257-9.77,21.495
		c-3.901,1.463-6.521,5.245-6.521,9.411s2.62,7.948,6.521,9.411c16.86,6.323,28.188,22.669,28.188,40.675
		s-11.328,34.352-28.188,40.675C476.969,139.534,474.988,139.876,473.04,139.876z"/>
	<path style="fill:#E7812E;" d="M389.564,139.876c-6.759,0-13.121-4.135-15.635-10.837c-3.238-8.634,1.136-18.257,9.77-21.495
		c3.901-1.463,6.521-5.245,6.521-9.411s-2.62-7.948-6.521-9.411c-16.86-6.323-28.188-22.669-28.188-40.675
		s11.328-34.352,28.188-40.675c8.629-3.236,18.257,1.136,21.495,9.77s-1.136,18.257-9.77,21.495
		c-3.901,1.463-6.521,5.245-6.521,9.411s2.62,7.948,6.521,9.411c16.86,6.323,28.188,22.669,28.188,40.675
		s-11.328,34.352-28.188,40.675C393.493,139.534,391.511,139.876,389.564,139.876z"/>
	<path style="fill:#E7812E;" d="M122.44,139.876c-6.759,0-13.121-4.135-15.635-10.837c-3.238-8.634,1.136-18.257,9.77-21.495
		c3.901-1.463,6.521-5.245,6.521-9.411s-2.62-7.948-6.521-9.411C99.716,82.4,88.388,66.055,88.388,48.048
		s11.328-34.352,28.188-40.675c8.629-3.236,18.257,1.136,21.495,9.77c3.238,8.634-1.136,18.257-9.77,21.495
		c-3.901,1.463-6.521,5.245-6.521,9.411s2.62,7.948,6.521,9.411c16.86,6.323,28.188,22.669,28.188,40.675
		s-11.328,34.352-28.188,40.675C126.369,139.534,124.388,139.876,122.44,139.876z"/>
	<path style="fill:#E7812E;" d="M38.964,139.876c-6.759,0-13.121-4.135-15.635-10.837c-3.238-8.634,1.136-18.257,9.77-21.495
		c3.901-1.463,6.521-5.245,6.521-9.411s-2.62-7.948-6.521-9.411C16.24,82.401,4.911,66.056,4.911,48.048S16.24,13.696,33.1,7.373
		c8.63-3.236,18.257,1.136,21.495,9.77c3.238,8.634-1.136,18.257-9.77,21.495c-3.901,1.462-6.521,5.245-6.521,9.411
		s2.62,7.948,6.521,9.411c16.86,6.323,28.188,22.669,28.188,40.675s-11.328,34.352-28.188,40.675
		C42.893,139.534,40.912,139.876,38.964,139.876z"/>
</g>
<path style="fill:#54CCFF;" d="M256,505.694c-20.652,0-41.314-6.006-59.346-18.026c-24.792-16.527-56.835-16.537-81.65,0
	c-31.238,20.831-71.673,23.701-105.508,7.499c-8.315-3.978-11.837-13.951-7.859-22.266c3.989-8.315,13.945-11.852,22.271-7.853
	c23.282,11.141,51.075,9.158,72.574-5.163c36.054-24.043,82.661-24.032,118.693,0c24.815,16.537,56.857,16.527,81.65,0
	c36.054-24.043,82.661-24.032,118.693,0c21.489,14.32,49.292,16.315,72.574,5.163c8.325-4.011,18.282-0.473,22.271,7.853
	c3.978,8.315,0.456,18.288-7.859,22.266c-33.858,16.211-74.27,13.332-105.508-7.499c-24.792-16.527-56.835-16.537-81.65,0
	C297.325,499.689,276.662,505.694,256,505.694z"/>
<path style="fill:#4BB8E6;" d="M488.091,465.049c-23.282,11.152-51.085,9.158-72.574-5.163c-36.032-24.032-82.639-24.043-118.693,0
	c-12.399,8.265-26.611,12.399-40.825,12.399v33.409c20.662,0,41.325-6.006,59.346-18.026c24.815-16.537,56.857-16.527,81.65,0
	c31.238,20.831,71.65,23.712,105.508,7.499c8.315-3.978,11.837-13.951,7.859-22.266
	C506.373,464.576,496.418,461.038,488.091,465.049z"/>
<path style="fill:#F9BC35;" d="M49.002,372.958c21.316,4.14,40.045-12.154,40.045-32.743V290.13c0-9.22,7.475-16.695,16.695-16.695
	h33.39c9.22,0,16.695,7.475,16.695,16.695v101.643c20.665-0.001,41.328,6.008,59.346,18.027c24.815,16.537,56.857,16.527,81.65,0
	c18.024-12.017,38.686-18.026,59.346-18.027V290.13c0-9.22,7.475-16.695,16.695-16.695h33.39c9.22,0,16.695,7.475,16.695,16.695
	v48.768c0,16.149,10.883,30.982,26.736,34.062c21.316,4.14,40.045-12.154,40.045-32.743v-66.781
	c0-36.882-29.899-66.781-66.781-66.781H89.046c-36.882,0-66.781,29.899-66.781,66.781v65.463
	C22.267,355.045,33.15,369.879,49.002,372.958z"/>
<path style="fill:#F39E31;" d="M422.952,206.653H256v215.546c14.214,0,28.426-4.134,40.825-12.399
	c18.024-12.017,38.686-18.026,59.346-18.027V290.13c0-9.22,7.475-16.695,16.695-16.695h33.39c9.22,0,16.695,7.475,16.695,16.695
	v48.768c0,16.149,10.883,30.982,26.736,34.062c21.316,4.14,40.045-12.154,40.045-32.743v-66.781
	C489.733,236.552,459.834,206.653,422.952,206.653z"/>
<path style="fill:#F9BC35;" d="M256,206.653c-36.825,0-66.781-29.956-66.781-66.781S219.175,73.091,256,73.091
	s66.781,29.956,66.781,66.781S292.825,206.653,256,206.653z"/>
<path style="fill:#F39E31;" d="M322.781,139.872c0-36.825-29.956-66.781-66.781-66.781v133.562
	C292.825,206.653,322.781,176.697,322.781,139.872z"/>
<path style="fill:#54CCFF;" d="M256,438.913c-20.652,0-41.314-6.006-59.346-18.026c-24.792-16.527-56.835-16.537-81.65,0
	c-31.238,20.826-71.673,23.695-105.508,7.5c-8.315-3.978-11.837-13.951-7.859-22.266c3.989-8.321,13.945-11.842,22.271-7.853
	c23.282,11.13,51.075,9.152,72.574-5.163c36.054-24.038,82.661-24.038,118.693,0c24.815,16.537,56.857,16.527,81.65,0
	c36.054-24.038,82.661-24.038,118.693,0c21.489,14.314,49.292,16.309,72.574,5.163c8.325-4,18.282-0.467,22.271,7.853
	c3.978,8.315,0.456,18.288-7.859,22.266c-33.858,16.217-74.27,13.326-105.508-7.5c-24.792-16.527-56.835-16.537-81.65,0
	C297.325,432.909,276.662,438.913,256,438.913z"/>
<path style="fill:#4BB8E6;" d="M488.091,398.268c-23.282,11.147-51.085,9.152-72.574-5.163c-36.032-24.038-82.639-24.038-118.693,0
	c-12.399,8.265-26.611,12.399-40.825,12.399v33.409c20.662,0,41.325-6.006,59.346-18.026c24.815-16.537,56.857-16.527,81.65,0
	c31.238,20.826,71.65,23.717,105.508,7.5c8.315-3.978,11.837-13.951,7.859-22.266C506.373,397.801,496.418,394.268,488.091,398.268z
	"/>
<g>
</g>
<g>
</g>
<g>
</g>
<g>
</g>
<g>
</g>
<g>
</g>
<g>
</g>
<g>
</g>
<g>
</g>
<g>
</g>
<g>
</g>
<g>
</g>
<g>
</g>
<g>
</g>
<g>
</g>
</svg>
