<?xml version="1.0" encoding="iso-8859-1"?>
<!-- Generator: Adobe Illustrator 19.0.0, SVG Export Plug-In . SVG Version: 6.00 Build 0)  -->
<svg version="1.1" id="Layer_1" xmlns="http://www.w3.org/2000/svg" xmlns:xlink="http://www.w3.org/1999/xlink" x="0px" y="0px"
	 viewBox="0 0 512 512" style="enable-background:new 0 0 512 512;" xml:space="preserve">
<circle style="fill:#FF5050;" cx="256" cy="256" r="241.371"/>
<path d="M256,512C114.842,512,0,397.158,0,256S114.842,0,256,0s256,114.842,256,256S397.158,512,256,512z M256,29.257
	C130.974,29.257,29.257,130.974,29.257,256S130.974,482.743,256,482.743S482.743,381.026,482.743,256S381.026,29.257,256,29.257z"/>
<path d="M245.757,94.037c-8.079,0-14.629-6.543-14.629-14.623v-0.012c0-8.079,6.549-14.629,14.629-14.629
	c8.079,0,14.629,6.549,14.629,14.629S253.836,94.037,245.757,94.037z"/>
<path d="M79.401,262.419c-8.079,0-14.629-6.549-14.629-14.629c0-39.784,12.548-77.616,36.289-109.407
	c22.943-30.724,55.637-53.915,92.058-65.302c7.711-2.412,15.917,1.887,18.327,9.598c2.411,7.711-1.887,15.916-9.598,18.327
	C137.359,121.168,94.03,180.157,94.03,247.79C94.03,255.87,87.48,262.419,79.401,262.419z"/>
<g>
	<path style="fill:#7BFFCD;" d="M267.668,327.967c-2.959,0.37-5.974,0.563-9.033,0.563c-39.993,0-72.531-32.537-72.531-72.53
		s32.537-72.531,72.531-72.531c23.663,0,44.712,11.394,57.96,28.981h61.143c-17.763-48.567-64.385-83.232-119.103-83.232
		c-70.02,0-126.781,56.762-126.781,126.781S188.615,382.78,258.635,382.78c18.725,0,36.5-4.064,52.496-11.35L267.668,327.967z"/>
	<polygon style="fill:#7BFFCD;" points="341.993,310.271 404.676,212.593 279.309,212.593 	"/>
</g>
<path d="M417.514,205.578c-2.566-4.694-7.488-7.614-12.837-7.614h-17.07c-22.658-50.259-73.253-83.374-128.971-83.374
	c-77.973,0-141.41,63.437-141.41,141.41s63.437,141.41,141.41,141.41c20.407,0,40.109-4.261,58.561-12.665
	c4.364-1.988,7.477-5.989,8.331-10.708c0.853-4.719-0.66-9.557-4.051-12.949l-43.464-43.464c-3.19-3.19-7.676-4.728-12.155-4.172
	c-2.399,0.3-4.829,0.451-7.222,0.451c-31.927,0-57.903-25.974-57.903-57.903s25.974-57.903,57.903-57.903
	c4.705,0,9.31,0.565,13.748,1.641c-2.449,1.319-4.529,3.309-5.911,5.84c-2.564,4.694-2.364,10.414,0.525,14.915l62.683,97.678
	c2.69,4.193,7.33,6.728,12.311,6.728c4.981,0,9.621-2.535,12.311-6.728l62.683-97.678
	C419.877,215.991,420.078,210.273,417.514,205.578z M171.476,256c0,48.061,39.099,87.16,87.16,87.16c1.153,0,2.308-0.023,3.467-0.07
	l22.139,22.139c-8.324,1.944-16.883,2.924-25.606,2.924c-61.841,0-112.153-50.312-112.153-112.153s50.312-112.153,112.153-112.153
	c39.532,0,75.821,21.012,95.899,53.974h-31.039c-16.539-18.507-39.787-28.981-64.862-28.981
	C210.575,168.84,171.476,207.939,171.476,256z M341.993,283.184l-35.915-55.963h71.829L341.993,283.184z"/>
<g>
</g>
<g>
</g>
<g>
</g>
<g>
</g>
<g>
</g>
<g>
</g>
<g>
</g>
<g>
</g>
<g>
</g>
<g>
</g>
<g>
</g>
<g>
</g>
<g>
</g>
<g>
</g>
<g>
</g>
</svg>
