<svg id="Capa_1" enable-background="new 0 0 512 512" height="512" viewBox="0 0 512 512" width="512" xmlns="http://www.w3.org/2000/svg"><g><g><g><path d="m195.831 7.5c-21.815 0-39.499 17.684-39.499 39.499v77.298h78.998v-77.298c0-21.815-17.685-39.499-39.499-39.499z" fill="#f9f6f9"/><path d="m209.016 9.756c-15.333 5.432-26.315 20.052-26.315 37.243v77.293h-26.369v-77.293c0-21.812 17.687-39.5 39.5-39.5 4.621.001 9.059.8 13.184 2.257z" fill="#e7ecf6"/><path d="m284.588 103.176h-177.515c-11.665 0-21.121 9.456-21.121 21.121v52.349l103.454 20.862 116.305-20.862v-52.349c-.001-11.664-9.458-21.121-21.123-21.121z" fill="#f9f6f9"/><path d="m174.572 103.177c-11.662 0-21.121 9.459-21.121 21.121v52.359h-67.5v-52.359c0-11.662 9.448-21.121 21.121-21.121z" fill="#e7ecf6"/><path d="m333.6 217.522-141.526 25.745-134.01-25.745c0-22.579 18.292-40.871 40.871-40.871h193.794c22.568 0 40.871 18.292 40.871 40.871z" fill="#c0e3f8"/><path d="m183.679 176.651c-22.568 0-40.871 18.292-40.871 40.871h-84.744c0-22.579 18.303-40.871 40.871-40.871z" fill="#a7d7f8"/><path d="m333.6 217.522v246.106c0 22.568-18.303 40.871-40.871 40.871h-193.794c-22.579 0-40.871-18.303-40.871-40.871v-246.106z" fill="#e49542"/><path d="m183.679 504.5h-84.744c-22.568 0-40.871-18.303-40.871-40.871v-246.107h84.744v246.106c0 22.569 18.303 40.872 40.871 40.872z" fill="#e28424"/></g><circle cx="354.176" cy="389.736" fill="#f5dd81" r="99.762"/><path d="m368.144 488.516c-4.56.65-9.22.98-13.96.98-55.1 0-99.77-44.67-99.77-99.76 0-55.1 44.67-99.77 99.77-99.77 4.74 0 9.4.33 13.96.98-48.49 6.79-85.79 48.43-85.79 98.79 0 50.35 37.3 91.99 85.79 98.78z" fill="#f1cd6b"/></g><g><path d="m354.18 282.47c-4.428 0-8.792.275-13.08.799v-65.749c0-19.354-11.43-36.08-27.89-43.807v-49.415c0-15.782-12.839-28.622-28.621-28.622h-41.759v-48.677c0-25.916-21.084-46.999-46.999-46.999-25.916 0-46.999 21.083-46.999 46.999v48.677h-41.759c-15.782 0-28.621 12.839-28.621 28.622v49.414c-16.461 7.726-27.892 24.453-27.892 43.807v246.11c0 26.671 21.699 48.37 48.37 48.37h193.8c14.647 0 28.261-6.542 37.405-17.719 7.732 1.778 15.781 2.719 24.045 2.719 13.287 0 26.267-2.41 38.581-7.164 3.864-1.491 5.788-5.833 4.296-9.697-1.491-3.864-5.833-5.787-9.697-4.296-10.585 4.086-21.748 6.158-33.18 6.158-50.878 0-92.27-41.388-92.27-92.26 0-50.878 41.392-92.27 92.27-92.27 50.872 0 92.26 41.392 92.26 92.27 0 28.391-12.79 54.786-35.091 72.417-3.25 2.569-3.801 7.285-1.232 10.535s7.286 3.802 10.535 1.232c25.922-20.493 40.789-51.176 40.789-84.183-.001-59.15-48.118-107.271-107.261-107.271zm-190.349-235.471c0-17.645 14.355-31.999 32-31.999s31.999 14.354 31.999 31.999v48.677h-63.999zm-70.38 77.299c0-7.511 6.11-13.622 13.621-13.622h49.259 78.999 49.259c7.511 0 13.621 6.111 13.621 13.622v44.849h-204.759zm153.459 265.442c0 44.992 27.851 83.596 67.217 99.497-5.921 4.958-13.438 7.762-21.397 7.762h-193.8c-18.4 0-33.37-14.97-33.37-33.37v-238.609h30.54c4.142 0 7.5-3.358 7.5-7.5s-3.358-7.5-7.5-7.5h-29.68c3.414-14.799 16.689-25.87 32.51-25.87h193.8c15.821 0 29.096 11.071 32.51 25.87h-199.14c-4.142 0-7.5 3.358-7.5 7.5s3.358 7.5 7.5 7.5h200v61.187c-45.573 12.372-79.19 54.097-79.19 103.533z"/><path d="m319.125 354.331c-3.134.977-5.268 3.878-5.268 7.16v57.635c0 4.142 3.358 7.5 7.5 7.5s7.5-3.358 7.5-7.5v-33.576l25.301 36.637c2.193 3.168 5.857 4.514 9.329 3.427 3.543-1.107 5.833-4.417 5.832-8.507l-.54-55.797c-.04-4.142-3.415-7.515-7.572-7.427-4.142.04-7.467 3.43-7.427 7.572l.332 34.268-26.584-38.495c-1.865-2.7-5.268-3.874-8.403-2.897z"/><path d="m379.496 359.437v57.743c0 4.142 3.358 7.5 7.5 7.5s7.5-3.358 7.5-7.5v-57.743c0-4.142-3.358-7.5-7.5-7.5s-7.5 3.358-7.5 7.5z"/></g></g></svg>