<svg height="512" viewBox="0 0 512 512" width="512" xmlns="http://www.w3.org/2000/svg"><g id="flat"><circle cx="256" cy="256" fill="#d18d28" r="232"/><circle cx="256" cy="256" fill="#ea9d2d" r="168"/><path d="m73.398 402.361-49.398 29.639 40 8-2.597 48 66.597-40-19.199-28.798z" fill="#961b20"/><path d="m436 400.8 52 31.2-40 8 2.597 48-66.597-40 20.878-31.317z" fill="#961b20"/><path d="m168 208h48v88h-48z" fill="#0296e5"/><path d="m344 212a12 12 0 0 0 -12-12h-44a16 16 0 0 1 -16-16v-24a16 16 0 0 0 -16-16h-16v17.632a54 54 0 0 1 -15.816 38.184l-8.184 8.184v88h92a12 12 0 0 0 0-24h8a12 12 0 0 0 0-24h8a12 12 0 0 0 0-24h8a12 12 0 0 0 12-12z" fill="#f6bb92"/><path d="m86.907 369.165-30.907 14.835 32 48a390.756 390.756 0 0 1 336 0l32-48-30.907-14.835a390.754 390.754 0 0 0 -338.186 0z" fill="#e82f3e"/><g fill="#961b20"><path d="m258.853 346.073 2.827 8.7h9.147a3 3 0 0 1 1.763 5.427l-7.4 5.377 2.827 8.7a3 3 0 0 1 -4.617 3.354l-7.4-5.377-7.4 5.377a3 3 0 0 1 -4.617-3.354l2.827-8.7-7.4-5.377a3 3 0 0 1 1.763-5.427h9.147l2.827-8.7a3 3 0 0 1 5.706 0z"/><path d="m212.686 351.857 2.827 8.7h9.147a3 3 0 0 1 1.763 5.427l-7.4 5.377 2.826 8.7a3 3 0 0 1 -4.616 3.354l-7.4-5.376-7.4 5.376a3 3 0 0 1 -4.617-3.354l2.827-8.7-7.4-5.377a3 3 0 0 1 1.764-5.427h9.147l2.827-8.7a3 3 0 0 1 5.705 0z"/><path d="m305.02 351.857 2.827 8.7h9.147a3 3 0 0 1 1.764 5.427l-7.4 5.377 2.827 8.7a3 3 0 0 1 -4.617 3.354l-7.4-5.376-7.4 5.376a3 3 0 0 1 -4.616-3.354l2.826-8.7-7.4-5.377a3 3 0 0 1 1.763-5.427h9.147l2.827-8.7a3 3 0 0 1 5.705 0z"/></g></g></svg>