<svg id="Capa_1" enable-background="new 0 0 512 512" height="512" viewBox="0 0 512 512" width="512" xmlns="http://www.w3.org/2000/svg"><g><path d="m376 261.755h-240c-2.792 0-5.528-.779-7.901-2.25-73.414-45.493-122.245-112.914-124.287-115.762-4.413-6.152-3.549-14.63 2.014-19.766l102.235-94.371c20.684-19.091 47.576-29.606 75.725-29.606 23.998 0 47.787 7.93 66.986 22.328l5.228 3.922 5.229-3.922c19.198-14.398 42.988-22.328 66.985-22.328 28.148 0 55.041 10.515 75.725 29.606l102.235 94.371c5.563 5.136 6.427 13.613 2.014 19.766-2.042 2.848-50.873 70.269-124.287 115.762-2.373 1.471-5.109 2.25-7.901 2.25z" fill="#ff5c5c"/><g><path d="m506.174 123.978-102.235-94.372c-20.684-19.091-47.576-29.606-75.725-29.606-23.998 0-47.787 7.93-66.986 22.328l-5.228 3.922v235.505h120c2.792 0 5.528-.779 7.901-2.25 73.414-45.493 122.245-112.914 124.287-115.762 4.414-6.152 3.55-14.63-2.014-19.765z" fill="#d0004f"/></g><path d="m375.478 194.831h-238.956c-1.211 0-2.418-.146-3.595-.438-73.115-18.048-122.179-45.148-124.232-46.292-5.488-3.061-8.487-9.218-7.513-15.426s5.715-11.151 11.877-12.384l150.971-30.194c31.759-6.351 64.698-.253 91.97 16.741 27.273-16.995 60.212-23.091 91.97-16.741l150.971 30.194c6.162 1.232 10.903 6.176 11.877 12.384s-2.025 12.365-7.513 15.426c-2.053 1.145-51.117 28.244-124.232 46.293-1.176.291-2.383.437-3.595.437z" fill="#694d33"/><g><path d="m510.818 132.675c-.974-6.208-5.715-11.151-11.877-12.384l-150.971-30.194c-31.758-6.35-64.697-.254-91.97 16.741v87.993h119.478c1.211 0 2.418-.146 3.595-.438 73.115-18.049 122.179-45.148 124.232-46.293 5.488-3.06 8.487-9.217 7.513-15.425z" fill="#4f4540"/></g><g><path d="m346 140h-17.574c-20.444 0-40.081 5.209-57.426 14.964l-15 30.036-15-30.036c-17.345-9.755-36.983-14.964-57.426-14.964h-17.574c-24.813 0-45 20.187-45 45v152c0 74.439 60.561 135 135 135s135-60.561 135-135v-152c0-24.813-20.187-45-45-45z" fill="#ffbeaa"/><g><path d="m346 140h-17.574c-20.444 0-40.081 5.209-57.426 14.964l-15 30.036v287c74.439 0 135-60.561 135-135v-152c0-24.813-20.187-45-45-45z" fill="#faa68f"/></g><path d="m256 330c8.284 0 15-6.716 15-15v-160.036c-5.219 2.935-10.239 6.265-15 10.009-4.761-3.745-9.781-7.074-15-10.009v160.036c0 8.284 6.716 15 15 15z" fill="#faa68f"/></g><g><g><path d="m256 164.974v165.026c8.284 0 15-6.716 15-15v-160.036c-5.219 2.935-10.239 6.265-15 10.01z" fill="#e09380"/></g></g><g><path d="m56.514 407.285c-2.545 0-5.124-.648-7.486-2.013-45.365-26.191-60.964-84.407-34.772-129.772 4.141-7.174 13.315-9.635 20.49-5.49 7.174 4.142 9.632 13.315 5.49 20.49-17.92 31.039-7.248 70.871 23.792 88.792 7.174 4.142 9.632 13.315 5.49 20.49-2.777 4.812-7.82 7.503-13.004 7.503z" fill="#00da80"/></g><g><g><g><g><path d="m22.246 506.313c-20.299-11.72-27.279-37.768-15.559-58.067s37.768-27.279 58.067-15.559 27.279 37.768 15.559 58.067-37.768 27.279-58.067 15.559z" fill="#dd78ef"/><path d="m95.246 377.313c-20.299-11.72-27.279-37.768-15.559-58.067s37.768-27.279 58.067-15.559 27.279 37.768 15.559 58.067-37.768 27.279-58.067 15.559z" fill="#dd78ef"/><path d="m6.687 448.246 73.626 42.508c-11.72 20.299-37.768 27.279-58.067 15.559-20.299-11.719-27.279-37.768-15.559-58.067z" fill="#a061e2"/><path d="m79.687 319.246 73.626 42.508c-11.72 20.299-37.768 27.279-58.067 15.559-20.299-11.719-27.279-37.768-15.559-58.067z" fill="#a061e2"/><path d="m58.746 441.813c-20.299-11.72-27.279-37.768-15.559-58.067s37.768-27.279 58.067-15.559 27.279 37.768 15.559 58.067-37.768 27.279-58.067 15.559z" fill="#dd78ef"/><path d="m43.187 383.746 73.626 42.508c-11.72 20.299-37.768 27.279-58.067 15.559-20.299-11.719-27.279-37.768-15.559-58.067z" fill="#a061e2"/><path d="m95.246 506.313c-20.299-11.72-27.279-37.768-15.559-58.067s37.768-27.279 58.067-15.559 27.279 37.768 15.559 58.067-37.768 27.279-58.067 15.559z" fill="#dd78ef"/><path d="m131.746 441.813c-20.299-11.72-27.279-37.768-15.559-58.067s37.768-27.279 58.067-15.559 27.279 37.768 15.559 58.067-37.768 27.279-58.067 15.559z" fill="#dd78ef"/><path d="m116.187 383.746 73.626 42.508c-11.72 20.299-37.768 27.279-58.067 15.559-20.299-11.719-27.279-37.768-15.559-58.067z" fill="#a061e2"/><path d="m79.687 448.246 73.626 42.508c-11.72 20.299-37.768 27.279-58.067 15.559-20.299-11.719-27.279-37.768-15.559-58.067z" fill="#a061e2"/><path d="m168.246 506.313c-20.299-11.72-27.279-37.768-15.559-58.067s37.768-27.279 58.067-15.559 27.279 37.768 15.559 58.067-37.768 27.279-58.067 15.559z" fill="#dd78ef"/><path d="m152.687 448.246 73.626 42.508c-11.72 20.299-37.768 27.279-58.067 15.559-20.299-11.719-27.279-37.768-15.559-58.067z" fill="#a061e2"/></g></g></g></g></g></svg>