<?xml version="1.0" encoding="iso-8859-1"?>
<!-- Generator: Adobe Illustrator 19.0.0, SVG Export Plug-In . SVG Version: 6.00 Build 0)  -->
<svg version="1.1" id="Layer_1" xmlns="http://www.w3.org/2000/svg" xmlns:xlink="http://www.w3.org/1999/xlink" x="0px" y="0px"
	 viewBox="0 0 512 512" style="enable-background:new 0 0 512 512;" xml:space="preserve">
<g>
	<g>
		<path d="M190.112,136.661c-17.342,0-31.449,14.108-31.449,31.449v55.845c-35.504-5.799-63.166-35.184-66.337-71.493
			C127.466,145.337,154,114.21,154,76.998C153.999,34.542,119.457,0,76.999,0C34.542,0,0,34.542,0,76.999
			c0,37.408,26.818,68.655,62.234,75.563c3.384,52.824,44.38,95.575,96.428,101.691v57.659c0,17.342,14.108,31.45,31.449,31.45
			h141.031v-11.768v-18.233v-146.7v-18.234v-11.768H190.112z M61.999,92V35.019H92v26.98h26.981V92H61.999z M292.004,243.813
			l-47.102,47.103L197.8,243.813c-12.515-12.515-12.515-32.805,0-45.319c12.515-12.515,32.805-12.515,45.319,0l1.783,1.783
			l1.783-1.783c12.515-12.515,32.804-12.515,45.319,0C304.519,211.008,304.519,231.298,292.004,243.813z"/>
	</g>
</g>
<g>
	<g>
		<path d="M417.478,226.043v-46.164c0-17.342-14.108-31.45-31.449-31.45h-24.884v30.001v123.164v30.001h24.884
			c17.342,0,31.449-14.108,31.449-31.449v-43.694c36.698,7.037,64.52,39.363,64.52,78.081v1.057
			c0,43.848-35.673,79.521-79.521,79.521H205.701c-7.068-38.012-40.459-66.89-80.489-66.89H81.89C36.736,348.22,0,384.955,0,430.11
			C0,475.265,36.736,512,81.89,512h43.323c40.029,0,73.419-28.877,80.489-66.889h196.777C462.869,445.111,512,395.98,512,335.589
			v-1.057C511.999,279.231,470.796,233.378,417.478,226.043z"/>
	</g>
</g>
<g>
</g>
<g>
</g>
<g>
</g>
<g>
</g>
<g>
</g>
<g>
</g>
<g>
</g>
<g>
</g>
<g>
</g>
<g>
</g>
<g>
</g>
<g>
</g>
<g>
</g>
<g>
</g>
<g>
</g>
</svg>
